HIERARCHY
ROOT Hips
{
	OFFSET 0.000000 0.000000 0.000000 
	CHANNELS 6 Xposition Yposition Zposition Zrotation Yrotation Xrotation
	JOINT LeftUpLeg
	{
		OFFSET 1.363060 -1.794630 0.839290 
		CHANNELS 3 Zrotation Yrotation Xrotation
		JOINT LeftLeg
		{
			OFFSET 2.448110 -6.726130 0.000000 
			CHANNELS 3 Zrotation Yrotation Xrotation
			JOINT LeftFoot
			{
				OFFSET 2.562200 -7.039590 0.000000 
				CHANNELS 3 Zrotation Yrotation Xrotation
				JOINT LeftToeBase
				{
					OFFSET 0.157640 -0.433110 2.322550 
					CHANNELS 3 Zrotation Yrotation Xrotation
					End Site
					{
						OFFSET 0.000000 0.000000 0.000000 
					}
				}
			}
		}
	}
	JOINT RightUpLeg
	{
		OFFSET -1.305520 -1.794630 0.839290 
		CHANNELS 3 Zrotation Yrotation Xrotation
		JOINT RightLeg
		{
			OFFSET -2.542530 -6.985550 0.000000 
			CHANNELS 3 Zrotation Yrotation Xrotation
			JOINT RightFoot
			{
				OFFSET -2.568260 -7.056230 0.000000 
				CHANNELS 3 Zrotation Yrotation Xrotation
				JOINT RightToeBase
				{
					OFFSET -0.164730 -0.452590 2.363150 
					CHANNELS 3 Zrotation Yrotation Xrotation
					End Site
					{
						OFFSET 0.000000 0.000000 0.000000 
					}
				}
			}
		}
	}
	JOINT Spine
	{
		OFFSET 0.028270 2.035590 -0.193380 
		CHANNELS 3 Zrotation Yrotation Xrotation
		JOINT Spine1
		{
			OFFSET 0.056720 2.048850 -0.042750 
			CHANNELS 3 Zrotation Yrotation Xrotation
			JOINT Neck1
			{
				OFFSET -0.054170 1.746240 0.172020 
				CHANNELS 3 Zrotation Yrotation Xrotation
				JOINT Head
				{
					OFFSET 0.104070 1.761360 -0.123970 
					CHANNELS 3 Zrotation Yrotation Xrotation
					End Site
					{
						OFFSET 0.000000 0.000000 0.000000 
					}
				}
			}
			JOINT LeftArm
			{
				OFFSET 3.362410 1.200890 -0.311210 
				CHANNELS 3 Zrotation Yrotation Xrotation
				JOINT LeftForeArm
				{
					OFFSET 4.983000 -0.000000 -0.000000 
					CHANNELS 3 Zrotation Yrotation Xrotation
					JOINT LeftHand
					{
						OFFSET 3.483560 -0.000000 -0.000000 
						CHANNELS 3 Zrotation Yrotation Xrotation
						JOINT LeftHandIndex1
						{
							OFFSET 0.715260 -0.000000 -0.000000 
							CHANNELS 3 Zrotation Yrotation Xrotation
							End Site
							{
								OFFSET 0.000000 0.000000 0.000000 
							}
						}
					}
				}
			}
			JOINT RightArm
			{
				OFFSET -3.136600 1.374050 -0.404650 
				CHANNELS 3 Zrotation Yrotation Xrotation
				JOINT RightForeArm
				{
					OFFSET -5.241900 -0.000000 -0.000000 
					CHANNELS 3 Zrotation Yrotation Xrotation
					JOINT RightHand
					{
						OFFSET -3.444170 -0.000000 -0.000000 
						CHANNELS 3 Zrotation Yrotation Xrotation
						JOINT RightHandIndex1
						{
							OFFSET -0.622530 -0.000000 -0.000000 
							CHANNELS 3 Zrotation Yrotation Xrotation
							End Site
							{
								OFFSET 0.000000 0.000000 0.000000 
							}
						}
					}
				}
			}
		}
	}
}
MOTION
Frames: 15
Frame Time: 0.041667
10.434648 18.022714 -38.590226 -2.352046 -2.801540 5.799077 -9.488276 0.300823 -1.425914 -0.989950 3.076170 5.780915 1.085654 -1.411287 7.290054 2.534800 9.900800 28.656200 23.546313 4.573871 7.593456 0.992776 -2.244422 2.532338 0.982318 -15.308468 -21.663651 -0.204200 -2.909400 8.026600 1.010380 0.688689 -5.685527 -2.178393 0.595422 1.784697 11.243746 -13.884679 7.550916 4.170700 -6.844300 1.657800 -82.618625 -1.365911 31.832486 14.041558 -19.194596 -2.534951 0.161765 0.557397 -27.570272 -7.125000 0.000000 0.000000 84.457781 -6.243852 25.971303 -17.596466 21.840888 -4.826046 1.033806 2.242578 -6.946141 7.125000 0.000000 0.000000 
10.434051 18.018330 -38.597399 -2.510315 -2.723549 6.021681 -9.232870 0.241089 -1.805065 -0.987913 3.126163 5.948051 1.086632 -1.384908 7.386351 2.501200 9.840100 28.460300 23.734358 4.744854 7.271197 0.997412 -2.305535 2.682848 0.996312 -15.402330 -21.680030 -0.203000 -2.901000 8.003200 1.070099 0.631543 -5.684929 -2.122476 0.570265 1.936436 11.257754 -13.860320 7.299240 4.207200 -6.840600 1.554800 -82.592812 -1.380903 32.260475 14.170045 -19.365005 -2.575362 0.157298 0.552824 -26.733277 -7.125000 0.000000 0.000000 84.378954 -6.147878 25.745322 -17.588631 21.941655 -5.006294 1.086650 2.342487 -6.979411 7.125000 0.000000 0.000000 
10.434250 18.018529 -38.599790 -2.632334 -2.688102 6.040717 -9.066379 0.190678 -1.827706 -0.984408 3.125463 5.962777 1.101509 -1.481885 7.318038 2.496400 9.831300 28.432200 23.904701 4.714675 7.178539 0.999662 -2.366538 2.834772 1.005518 -15.442929 -21.635503 -0.176900 -2.708900 7.469200 1.090651 0.592925 -5.697923 -2.167937 0.550749 1.891469 11.193952 -13.836610 7.183595 4.191500 -6.832200 1.497800 -82.540830 -1.331819 32.413352 14.166093 -19.365831 -2.571897 0.170694 0.549061 -25.565541 -7.125000 0.000000 0.000000 84.364787 -6.149399 25.685201 -17.604799 22.005222 -5.087753 1.096514 2.383348 -7.010816 7.125000 0.000000 0.000000 
10.437837 18.020920 -38.596104 -2.521102 -2.671147 5.972348 -9.232419 0.160460 -1.732166 -0.986024 3.129802 5.959257 1.105623 -1.503536 7.355141 2.600000 10.017500 29.033400 23.767411 4.739231 7.332438 0.999556 -2.318893 2.720219 0.993385 -15.407109 -21.741079 -0.218600 -3.009500 8.305300 1.090539 0.555675 -5.722860 -2.115383 0.533208 1.787556 11.279419 -13.754521 7.095494 4.259600 -6.796300 1.472000 -82.540234 -1.300714 32.806944 14.009772 -19.176428 -2.519836 0.194577 0.547784 -24.139635 -7.125000 0.000000 0.000000 84.326376 -6.298530 25.856101 -17.823999 22.246344 -5.166111 1.074160 2.381047 -6.615207 7.125000 0.000000 0.000000 
10.440626 18.021419 -38.594709 -2.494507 -2.648353 5.972098 -9.277029 0.143957 -1.730819 -0.986317 3.129683 5.956914 1.110881 -1.530244 7.378684 2.645200 10.097300 29.292300 23.722347 4.703083 7.333875 0.998512 -2.316199 2.715385 0.990115 -15.386548 -21.738466 -0.225400 -3.055700 8.433900 1.099814 0.520732 -5.736518 -2.092207 0.516796 1.755840 11.336860 -13.680695 6.971859 4.310800 -6.764100 1.431900 -82.515484 -1.279201 33.160604 13.938056 -19.096356 -2.492801 0.215274 0.540529 -22.821452 -7.125000 0.000000 0.000000 84.288301 -6.362167 25.923608 -17.937911 22.389829 -5.237317 1.070784 2.393171 -6.274790 7.125000 0.000000 0.000000 
10.444213 18.022216 -38.591919 -2.447151 -2.638848 5.954572 -9.358501 0.138954 -1.692399 -0.987412 3.121540 5.928520 1.113984 -1.547090 7.395217 2.691800 10.178500 29.556700 23.642527 4.630499 7.361356 0.995954 -2.303607 2.685541 0.984303 -15.343528 -21.717429 -0.230100 -3.087200 8.521600 1.104183 0.493013 -5.749648 -2.069621 0.503923 1.717796 11.399032 -13.599300 6.849489 4.364800 -6.727700 1.394800 -82.487859 -1.245284 33.565882 13.858867 -19.009736 -2.461074 0.239815 0.527926 -21.496791 -7.125000 0.000000 0.000000 84.249208 -6.428595 26.042881 -18.025133 22.490694 -5.276976 1.073466 2.390651 -5.781111 7.125000 0.000000 0.000000 
10.447999 18.022813 -38.588731 -2.400423 -2.641400 5.939828 -9.441746 0.141653 -1.651853 -0.988674 3.111997 5.895923 1.115198 -1.555758 7.401712 2.726100 10.237900 29.750600 23.557995 4.556896 7.391515 0.992930 -2.285909 2.642541 0.977405 -15.291472 -21.691392 -0.234000 -3.113300 8.594400 1.108869 0.472530 -5.762214 -2.044144 0.494704 1.685292 11.451960 -13.520472 6.710594 4.415900 -6.692900 1.350300 -82.455594 -1.198336 34.033748 13.788616 -18.936974 -2.430325 0.265670 0.510201 -20.214515 -7.125000 0.000000 0.000000 84.206980 -6.480005 26.190961 -18.053230 22.521427 -5.286391 1.091317 2.378979 -5.137050 7.125000 0.000000 0.000000 
10.451586 18.023212 -38.586041 -2.374158 -2.646011 5.933555 -9.496026 0.143068 -1.621774 -0.989356 3.105165 5.873270 1.116985 -1.569115 7.395472 2.746300 10.272600 29.864200 23.498980 4.489264 7.408393 0.990323 -2.270792 2.604676 0.971612 -15.245664 -21.663900 -0.233600 -3.110500 8.586600 1.116842 0.455001 -5.776604 -2.020717 0.486960 1.651421 11.486388 -13.448661 6.548820 4.459400 -6.662100 1.293000 -82.415472 -1.136695 34.548549 13.729833 -18.879710 -2.403239 0.290711 0.490086 -19.015402 -7.125000 0.000000 0.000000 84.164490 -6.510300 26.353808 -18.009513 22.471662 -5.267489 1.126462 2.361118 -4.367827 7.125000 0.000000 0.000000 
10.454674 18.023710 -38.583750 -2.372479 -2.651787 5.932285 -9.514312 0.143145 -1.601841 -0.989099 3.103473 5.867622 1.120315 -1.592232 7.382545 2.759600 10.295400 29.938600 23.474511 4.433177 7.415316 0.988406 -2.259830 2.576313 0.967695 -15.211819 -21.637709 -0.229500 -3.083200 8.510300 1.128697 0.439285 -5.792593 -1.999968 0.480253 1.613768 11.496120 -13.384690 6.374106 4.491200 -6.635400 1.225000 -82.366436 -1.066864 35.089844 13.671475 -18.821050 -2.378103 0.312691 0.472114 -17.919229 -7.125000 0.000000 0.000000 84.122491 -6.522870 26.533101 -17.903079 22.353928 -5.227637 1.176050 2.339440 -3.506314 7.125000 0.000000 0.000000 
10.457265 18.024009 -38.582355 -2.387300 -2.649718 5.939540 -9.504061 0.142236 -1.605577 -0.987699 3.110254 5.888518 1.126089 -1.626408 7.380192 2.769200 10.311800 29.992300 23.478647 4.409915 7.416571 0.987864 -2.249562 2.549165 0.966620 -15.202138 -21.630377 -0.227000 -3.066800 8.464900 1.143167 0.420788 -5.811504 -1.980715 0.472143 1.570808 11.485957 -13.326317 6.198584 4.512700 -6.611500 1.152100 -82.308313 -0.991607 35.661853 13.608262 -18.752361 -2.353999 0.329006 0.459389 -16.912572 -7.125000 0.000000 0.000000 84.083351 -6.525717 26.725746 -17.756143 22.194590 -5.178864 1.233869 2.317319 -2.587156 7.125000 0.000000 0.000000 
10.459556 18.024009 -38.581358 -2.405716 -2.642691 5.958178 -9.483197 0.146180 -1.633288 -0.985799 3.121721 5.923628 1.133010 -1.664397 7.390785 2.774700 10.321000 30.022700 23.492761 4.408005 7.406644 0.987982 -2.242161 2.529104 0.968345 -15.210802 -21.626967 -0.224400 -3.049400 8.416300 1.155281 0.404237 -5.829864 -1.967861 0.464617 1.534310 11.468010 -13.270725 6.043022 4.525900 -6.587800 1.087300 -82.237509 -0.933118 36.272190 13.530183 -18.661137 -2.326557 0.340829 0.450713 -15.983664 -7.125000 0.000000 0.000000 84.053931 -6.519500 26.917558 -17.602434 22.027533 -5.128305 1.290124 2.294708 -1.657018 7.125000 0.000000 0.000000 
10.461350 18.023810 -38.580561 -2.411892 -2.637117 5.985800 -9.472899 0.164265 -1.679710 -0.983917 3.133408 5.959208 1.140100 -1.699925 7.417047 2.778800 10.328100 30.045900 23.494706 4.411864 7.385158 0.988205 -2.239144 2.520449 0.972874 -15.232716 -21.611445 -0.219700 -3.017000 8.326200 1.156782 0.400697 -5.839131 -1.968555 0.462755 1.522303 11.441463 -13.225738 5.923960 4.523900 -6.566800 1.043100 -82.142678 -0.922355 36.931335 13.432637 -18.543226 -2.294648 0.352359 0.444768 -15.111785 -7.125000 0.000000 0.000000 84.047642 -6.489302 27.077546 -17.450698 21.863194 -5.080078 1.340866 2.274005 -0.742630 7.125000 0.000000 0.000000 
10.462844 18.023411 -38.579665 -2.403794 -2.641108 6.020366 -9.478164 0.197881 -1.735808 -0.982497 3.140807 5.981930 1.145464 -1.722935 7.454547 2.783100 10.335500 30.070000 23.481018 4.432480 7.359643 0.988321 -2.236524 2.513590 0.978962 -15.262502 -21.591699 -0.216300 -2.994100 8.262400 1.145247 0.416689 -5.836782 -1.986757 0.469571 1.538904 11.392725 -13.201739 5.855292 4.498200 -6.553100 1.025900 -82.024218 -0.955157 37.656794 13.323633 -18.412172 -2.257744 0.366552 0.434324 -14.265321 -7.125000 0.000000 0.000000 84.070165 -6.427907 27.191784 -17.299125 21.699253 -5.033475 1.385363 2.256122 0.133512 7.125000 0.000000 0.000000 
10.464339 18.023013 -38.578469 -2.388437 -2.659198 6.055633 -9.493251 0.242196 -1.786506 -0.981747 3.140861 5.983171 1.148179 -1.729480 7.496173 2.794800 10.355200 30.134700 23.457316 4.456391 7.331760 0.988152 -2.237241 2.515557 0.984151 -15.285350 -21.567546 -0.212100 -2.965200 8.181800 1.125511 0.449202 -5.826379 -2.015319 0.483869 1.570621 11.319289 -13.196228 5.833895 4.451200 -6.546100 1.031900 -81.897653 -1.013055 38.431086 13.207308 -18.275273 -2.217059 0.384858 0.416851 -13.434589 -7.125000 0.000000 0.000000 84.112016 -6.337550 27.266899 -17.138162 21.524129 -4.983778 1.424281 2.240933 0.950125 7.125000 0.000000 0.000000 
10.465734 18.022415 -38.576875 -2.377873 -2.699119 6.095110 -9.503127 0.299709 -1.832163 -0.981300 3.134480 5.966527 1.148952 -1.725755 7.531556 2.810300 10.381400 30.220800 23.439077 4.500817 7.304946 0.987771 -2.239367 2.521531 0.986669 -15.294924 -21.550666 -0.211200 -2.958800 8.164100 1.103620 0.497345 -5.811944 -2.046470 0.505855 1.612229 11.227408 -13.206345 5.847011 4.390400 -6.545200 1.053600 -81.778059 -1.085735 39.200418 13.084063 -18.132483 -2.173499 0.406653 0.392945 -12.603993 -7.125000 0.000000 0.000000 84.161552 -6.225173 27.309906 -16.962435 21.330720 -4.927565 1.458130 2.227993 1.685733 7.125000 0.000000 0.000000 
